<svg width="256" height="256" viewBox="0 0 256 256" fill="none" xmlns="http://www.w3.org/2000/svg">
<rect width="256" height="256" fill="#C4C4C4"/>
<path d="M256 0H128L0 128V256L256 0Z" fill="#E73C7E"/>
<path d="M256 0V128L128 256H0L256 0Z" fill="#23A6D5"/>
<path d="M256 128V256H128L256 128Z" fill="#23D5AB"/>
<path d="M0 128V0H128L0 128Z" fill="#EE7752"/>
<path d="M255 1L1 255" stroke="black" stroke-width="2" stroke-linecap="round"/>
<path d="M255 129L129 255" stroke="black" stroke-width="2" stroke-linecap="round"/>
<path d="M127 1L1 127" stroke="black" stroke-width="2" stroke-linecap="round"/>
<path d="M156.4 54.4C163.333 54.4 169.667 55.8667 175.4 58.8C181.267 61.6 185.867 65.6 189.2 70.8C192.667 76 194.4 81.8 194.4 88.2C194.4 105.133 186.733 115.8 171.4 120.2V121C188.867 125 197.6 136.467 197.6 155.4C197.6 162.6 195.8 169 192.2 174.6C188.733 180.067 183.933 184.333 177.8 187.4C171.667 190.467 164.933 192 157.6 192H64.8V54.4H156.4ZM109 108H139.4C142.333 108 144.733 107 146.6 105C148.6 102.867 149.6 100.267 149.6 97.2V95.2C149.6 92.2667 148.6 89.8 146.6 87.8C144.6 85.6667 142.2 84.6 139.4 84.6H109V108ZM109 160H142.6C145.533 160 147.933 159 149.8 157C151.8 154.867 152.8 152.267 152.8 149.2V147.2C152.8 144.133 151.8 141.6 149.8 139.6C147.933 137.467 145.533 136.4 142.6 136.4H109V160Z" fill="black"/>
</svg>
