<?xml version="1.0" standalone="no"?>
<!DOCTYPE svg PUBLIC "-//W3C//DTD SVG 20010904//EN"
 "http://www.w3.org/TR/2001/REC-SVG-20010904/DTD/svg10.dtd">
<svg version="1.0" xmlns="http://www.w3.org/2000/svg"
 width="1000.000000pt" height="1000.000000pt" viewBox="0 0 1000.000000 1000.000000"
 preserveAspectRatio="xMidYMid meet">
<metadata>
Created by potrace 1.14, written by Peter Selinger 2001-2017
</metadata>
<g transform="translate(0.000000,1000.000000) scale(0.100000,-0.100000)"
fill="#000000" stroke="none">
<path d="M2648 7642 c-1455 -1296 -2647 -2363 -2647 -2369 -1 -19 7 -16 37 16
15 16 234 213 487 438 537 477 4763 4239 4785 4259 13 12 13 14 0 13 -8 0
-1206 -1061 -2662 -2357z"/>
<path d="M8603 8635 c-1072 -1078 -1360 -1362 -1368 -1350 -5 7 -32 49 -60 92
-58 91 -192 234 -284 303 -196 147 -471 236 -797 260 -83 6 -700 10 -1536 10
l-1398 0 0 -2382 0 -2383 -1582 -1582 c-870 -870 -1578 -1586 -1574 -1590 5
-4 718 704 1585 1575 l1576 1582 1323 0 c1410 0 1360 -1 1777 50 333 42 527
93 672 177 333 193 554 516 618 902 21 125 16 413 -10 524 -96 423 -351 688
-809 842 -59 19 -113 35 -121 35 -34 0 -10 17 75 53 344 148 550 390 637 749
14 56 18 115 18 253 0 199 -12 275 -67 419 l-30 79 1373 1373 c756 756 1366
1374 1357 1374 -9 0 -628 -614 -1375 -1365z m-3037 -1688 c224 -59 334 -196
334 -416 0 -177 -70 -311 -197 -379 -121 -63 -134 -65 -615 -69 l-438 -4 0
446 0 447 428 -5 c350 -3 438 -7 488 -20z m-436 -1790 c0 -1 -108 -110 -240
-242 l-240 -240 0 243 0 242 240 0 c132 0 240 -1 240 -3z m460 -7 c230 -28
362 -95 438 -223 84 -139 83 -345 -1 -486 -63 -105 -159 -171 -312 -213 -77
-21 -101 -22 -572 -26 l-493 -3 0 228 0 228 252 252 253 253 175 0 c97 0 214
-5 260 -10z"/>
<path d="M9928 5322 c-19 -20 -1067 -1211 -2328 -2647 -1261 -1435 -2307
-2625 -2323 -2642 -17 -18 -26 -33 -20 -33 7 0 1057 1189 2334 2643 1277 1453
2336 2657 2352 2674 17 18 28 35 26 38 -3 2 -21 -12 -41 -33z"/>
</g>
</svg>
